<svg xmlns="http://www.w3.org/2000/svg" xmlns:xlink="http://www.w3.org/1999/xlink" version="1.1" width="331.55949934992395" height="482.4324546721896" viewBox="90.21776314242084 -8.721836393938482 331.55949934992395 482.4324546721896">
  <defs>
    <linearGradient id="grad_1" x2="1">
      <stop offset="0" stop-color="#7F7F7F" stop-opacity="1"/>
      <stop offset="1" stop-color="#7F7F7F" stop-opacity="0"/>
    </linearGradient>
    <linearGradient id="grad_2" x2="1">
      <stop offset="0" stop-color="#7F7F7F" stop-opacity="1"/>
      <stop offset="1" stop-color="#7F7F7F" stop-opacity="0"/>
    </linearGradient>
    <linearGradient id="grad_3" x2="1">
      <stop offset="0" stop-color="#7F7F7F" stop-opacity="1"/>
      <stop offset="1" stop-color="#7F7F7F" stop-opacity="0"/>
    </linearGradient>
    <linearGradient id="grad_4" x2="1">
      <stop offset="0" stop-color="#7F7F7F" stop-opacity="1"/>
      <stop offset="1" stop-color="#7F7F7F" stop-opacity="0"/>
    </linearGradient>
  <linearGradient id="grad_1-.6951850652694702,0.7188308238983154,-0.7188308238983154,0.6951850652694702,176.6,-33.9" x2="362.169" x1="167.8995" y1="0.0418" y2="200.9191" gradientUnits="userSpaceOnUse">
      <stop offset="0" stop-color="#7F7F7F" stop-opacity="1"/>
      <stop offset="1" stop-color="#7F7F7F" stop-opacity="0"/>
    </linearGradient><linearGradient id="grad_2-.6951850652694702,0.7188308238983154,-0.7188308238983154,0.6951850652694702,258.9,83.6" x2="402.1322" x1="250.1995" y1="117.5418" y2="274.6423" gradientUnits="userSpaceOnUse">
      <stop offset="0" stop-color="#7F7F7F" stop-opacity="1"/>
      <stop offset="1" stop-color="#7F7F7F" stop-opacity="0"/>
    </linearGradient><linearGradient id="grad_3-.6951850652694702,0.7188308238983154,-0.7188308238983154,0.6951850652694702,216.55,-7" x2="430.3733" x1="316.0154" y1="175.0361" y2="293.2838" gradientUnits="userSpaceOnUse">
      <stop offset="0" stop-color="#7F7F7F" stop-opacity="1"/>
      <stop offset="1" stop-color="#7F7F7F" stop-opacity="0"/>
    </linearGradient><linearGradient id="grad_4-.6951850652694702,0.7188308238983154,-0.7188308238983154,0.6951850652694702,226.65,153.55" x2="369.5384" x1="203.3197" y1="189.0505" y2="360.923" gradientUnits="userSpaceOnUse">
      <stop offset="0" stop-color="#7F7F7F" stop-opacity="1"/>
      <stop offset="1" stop-color="#7F7F7F" stop-opacity="0"/>
    </linearGradient></defs>
  <!-- Exported by Scratch - http://scratch.mit.edu/ -->
  <path id="ID0.16306272894144058" fill="url(#grad_1-.6951850652694702,0.7188308238983154,-0.7188308238983154,0.6951850652694702,176.6,-33.9)" stroke="none" stroke-linecap="round" d="M 167.8995 0.0418 L 334.0627 228.1008 L 188.0077 355.9964 L 163.0094 264.9854 L 220.0382 185.0701 L 302.0542 184.1431 L 167.8995 0.0418 Z " stroke-width="1.0000000141800243"/>
  <path id="ID0.16306272894144058" fill="url(#grad_2-.6951850652694702,0.7188308238983154,-0.7188308238983154,0.6951850652694702,258.9,83.6)" stroke="none" stroke-linecap="round" d="M 250.1995 117.5418 L 379.9923 296.054 L 273.9978 386.0414 L 216.9695 320.0249 L 176.9904 279.0456 L 218.9867 322.0388 L 361.0146 270.0297 L 250.1995 117.5418 Z " stroke-width="1.0000000141800243"/>
  <g id="ID0.26747511932626367">
    <path id="ID0.16306272894144058" fill="url(#grad_3-.6951850652694702,0.7188308238983154,-0.7188308238983154,0.6951850652694702,216.55,-7)" stroke="none" stroke-linecap="round" d="M 316.0154 175.0361 L 413.0136 310.0725 L 366.0252 352.0373 L 317.0241 269.076 L 342.0042 211.0431 L 316.0154 175.0361 Z " stroke-width="1.0000000141800243"/>
    <path id="ID0.16306272894144058" fill="url(#grad_4-.6951850652694702,0.7188308238983154,-0.7188308238983154,0.6951850652694702,226.65,153.55)" stroke="none" stroke-linecap="round" d="M 209.9935 195.9513 L 355.018 374.9657 L 254.9996 464.947 L 184.7195 389.9749 L 98.9814 289.9567 L 186.7367 391.9888 L 346.0078 363.9948 L 209.9935 195.9513 Z " stroke-width="1.0000000141800243"/>
    <g id="ID0.14402630273252726">
      <g id="layer1">
        <g id="g4162">
          <g id="g4177">
            <g id="g5130">
              <g id="g5125">
                <path id="path5099" fill="#CCCCCC" stroke="none" stroke-width="17.527272787423968" stroke-linecap="square" stroke-linejoin="miter" opacity="1" d="M 336.1857 205.4049 C 384.5642 245.8475 393.581 316.7518 356.8614 368.0158 C 320.145 419.2766 250.1138 433.5613 196.2499 400.7756 C 142.3892 367.9866 122.9145 299.218 151.5878 243.0594 C 180.2611 186.8974 247.3841 162.343 305.5292 186.7449 C 247.3971 174.7841 181.6081 224.5324 175.4704 272.5182 C 169.9298 315.8365 189.7551 370.58 251.357 376.0524 C 299.4141 377.685 323.1571 368.6974 337.4645 362.1702 L 338.9771 305.2552 L 301.9621 305.3493 L 300.9429 334.6426 C 279.1377 342.4455 242.9114 346.11 229.146 335.0905 C 210.843 320.4358 203.9165 293.5833 212.0764 268.3311 C 217.367 251.9593 231.6875 235.5908 244.2487 225.9346 C 265.4697 209.6245 301.3421 202.4513 336.1857 205.4049 Z "/>
                <path id="path5118" fill="#B2B2B2" stroke="none" stroke-width="17.527272787423968" stroke-linecap="square" stroke-linejoin="miter" opacity="1" d="M 379.3807 295.5828 C 378.6958 321.8185 372.5256 346.1489 356.8614 368.0158 C 320.145 419.2766 250.1138 433.5613 196.2499 400.7756 C 142.3892 367.9866 123.9045 298.267 151.5878 243.0594 C 144.129 314.4018 182.2378 326.5638 182.2378 326.5638 C 192.7412 352.0011 214.6178 372.7904 251.357 376.0524 C 299.4141 377.685 323.1571 368.6974 337.4645 362.1702 L 338.9771 305.2552 L 301.9621 305.3493 L 300.9429 334.6426 C 279.1377 342.4455 242.9114 346.11 229.146 335.0905 C 229.146 335.0905 241.8143 337.3269 253.9081 337.3658 C 275.0902 337.4372 301.0955 334.9639 301.3616 331.9713 L 301.6472 305.4662 L 339.3244 305.2909 L 338.8148 325.9926 C 358.309 318.8648 368.2022 310.2407 379.3807 295.5828 Z "/>
                <path id="path5122" fill="#7F7F7F" stroke="none" stroke-width="17.527272787423968" stroke-linecap="square" stroke-linejoin="miter" opacity="1" d="M 358.0656 367.1719 C 337.8281 394.8293 300.5177 417.3032 260.2309 417.3032 C 193.6792 417.3032 140.6333 365.9677 138.569 299.6984 C 192.3907 456.3987 335.4457 381.8461 358.0656 367.1719 Z "/>
              </g>
            </g>
          </g>
        </g>
      </g>
    </g>
  </g>
</svg>